<?xml version="1.0"?>
<svg width="1727" height="1890" xmlns="http://www.w3.org/2000/svg" xmlns:svg="http://www.w3.org/2000/svg">
 <g class="layer">
  <title>Layer 1</title>
  <path d="m1102,1417l0,-414l-183,0l0,414l-152,0l-71,-123l101,0l0,-291l-289,0l0,-415l-273,0l108,187l-78,135l-265,-437l638,0l0,419l159,0l1,-419l153,0l67,115l-99,0l0,304l300,0l0,402l277,0l-118,-192l77,-128l271,443l-624,0zm89,-944l536,0l-474,773l0,-255l243,-403l-232,0l-73,-115zm-716,160l0,257l-241,404l219,0l72,123l-525,0l475,-784zm121,-200l84,0l0,113l176,-296l408,666l77,-128l-483,-788l-262,433zm-131,551l390,670l206,-343l0,142l65,0l-267,437l-471,-777l77,-129z" fill="#02176a" id="svg_1"/>
 </g>
</svg>